<svg width="14" height="11" viewBox="0 0 14 11" fill="none" xmlns="http://www.w3.org/2000/svg">
<path d="M7 5H1V6H7V5Z" fill="white"/>
<path d="M5 2.5H0V3.5H5V2.5Z" fill="white"/>
<path d="M13.9594 5.3032L12.4594 1.8032C12.421 1.71319 12.357 1.63646 12.2753 1.58256C12.1936 1.52865 12.0979 1.49994 12 1.5H10.5V0.5C10.5 0.367392 10.4473 0.240215 10.3536 0.146447C10.2598 0.0526785 10.1326 0 10 0H2V1H9.5V7.2781C9.27219 7.4104 9.07282 7.58648 8.91339 7.7962C8.75395 8.00591 8.6376 8.24511 8.57105 8.5H5.42895C5.30725 8.02867 5.01784 7.61791 4.61495 7.3447C4.21206 7.07149 3.72336 6.9546 3.24045 7.01594C2.75754 7.07728 2.31358 7.31263 1.99179 7.67788C1.66999 8.04314 1.49246 8.51321 1.49246 9C1.49246 9.48679 1.66999 9.95686 1.99179 10.3221C2.31358 10.6874 2.75754 10.9227 3.24045 10.9841C3.72336 11.0454 4.21206 10.9285 4.61495 10.6553C5.01784 10.3821 5.30725 9.97133 5.42895 9.5H8.57105C8.68007 9.92888 8.92892 10.3092 9.27825 10.5808C9.62758 10.8525 10.0575 10.9999 10.5 10.9999C10.9425 10.9999 11.3724 10.8525 11.7217 10.5808C12.0711 10.3092 12.3199 9.92888 12.429 9.5H13.5C13.6326 9.5 13.7598 9.44732 13.8536 9.35355C13.9473 9.25979 14 9.13261 14 9V5.5C14 5.43233 13.9862 5.36537 13.9594 5.3032ZM3.5 10C3.30222 10 3.10888 9.94135 2.94443 9.83147C2.77998 9.72159 2.65181 9.56541 2.57612 9.38268C2.50043 9.19996 2.48063 8.99889 2.51921 8.80491C2.5578 8.61093 2.65304 8.43275 2.79289 8.29289C2.93275 8.15304 3.11093 8.0578 3.30491 8.01921C3.49889 7.98063 3.69996 8.00043 3.88268 8.07612C4.06541 8.15181 4.22159 8.27998 4.33147 8.44443C4.44135 8.60888 4.5 8.80222 4.5 9C4.4997 9.26512 4.39424 9.5193 4.20677 9.70677C4.0193 9.89424 3.76512 9.9997 3.5 10ZM10.5 2.5H11.6704L12.742 5H10.5V2.5ZM10.5 10C10.3022 10 10.1089 9.94135 9.94443 9.83147C9.77998 9.72159 9.65181 9.56541 9.57612 9.38268C9.50043 9.19996 9.48063 8.99889 9.51921 8.80491C9.5578 8.61093 9.65304 8.43275 9.79289 8.29289C9.93275 8.15304 10.1109 8.0578 10.3049 8.01921C10.4989 7.98063 10.7 8.00043 10.8827 8.07612C11.0654 8.15181 11.2216 8.27998 11.3315 8.44443C11.4414 8.60888 11.5 8.80222 11.5 9C11.4997 9.26512 11.3942 9.5193 11.2068 9.70677C11.0193 9.89424 10.7651 9.9997 10.5 10ZM13 8.5H12.429C12.3188 8.07174 12.0696 7.69214 11.7206 7.42069C11.3715 7.14923 10.9422 7.00128 10.5 7V6H13V8.5Z" fill="white"/>
</svg>
